<svg xmlns="http://www.w3.org/2000/svg" viewBox="0 0 750.4 107.4"><path d="M272.2 72.9c-3.6 0-4.2-.6-4.2-4.8v-12h1.8l12.8 19.3H296v-1.8c-1.8-.2-3.3-1.6-5.8-5.4l-12.4-18.4 5.1-5.4c2.6-2.8 6.1-4.1 10.6-4.1v-2.5h-16.4v2.5c3 0 3.9.3 3.9 1 0 .5-.6 1.3-2 2.8l-8.5 8.6H268V19.3h-16.4v2.5c4.1 0 5.2.4 5.2 4.7v41.6c0 4.2-.6 4.8-4.3 4.8v2.5h19.8v-2.5zM397 75.4h15.5v-2.5c-3.7 0-4.3-.6-4.3-4.8V19.3h-16.4v2.5c4.2 0 5.3.4 5.3 4.7v13.2c-2-1.6-4.7-2.7-8-2.7-9.1 0-18.5 8-18.5 21.2 0 10.9 7.1 18.1 15.7 18.1 5.1 0 8.8-2.8 10.8-5.7v4.8zm245.6-48.2c0 3.3 2.8 6 6.5 6 3.5 0 6.7-2.7 6.7-6 0-3.5-2.8-6.2-6.4-6.2-3.6-.1-6.8 2.6-6.8 6.2zM41.2 75.4v-2.7c-6.6 0-7.6-.9-7.6-4.8V50.1h4.1c6.9 0 7.2 1.3 7.9 6.6h2V40.5h-2c-.7 5.4-.9 6.7-7.9 6.7h-4.1V26.3h5c11.7 0 13.5 1.3 14.6 12h1.9l-.3-15.2H15.9v2.7c4.6 0 5.9.6 5.9 4.8v37.3c0 4.2-1.3 4.8-5.9 4.8v2.7h25.3zm46.9-49.1h1.4c9.8 0 12.9.9 14 12h2l-.3-15.2h-46l-.3 15.2h2c1.1-11.1 3.3-12 13.1-12h2.2v41.6c0 4.1-1.4 4.8-7.6 4.8v2.7h27v-2.7c-6.2 0-7.6-.8-7.6-4.8V26.3zm78.4 50h1.3l16.5-45.2c1.6-4.1 3.4-5.4 7.9-5.4V23h-18.1v2.7c4 0 6.3.6 6.3 3.3 0 .6-.2 1.3-.4 2.2l-9.1 26.9-8.6-27.6c-.5-1.3-.7-2.2-.7-2.8 0-1.7 1.4-1.9 5.4-1.9v-2.7h-23v2.7c3.8 0 4.8.7 6.4 4.7l2.9 7.7-7.1 19.9-10.3-27.6c-.5-1.4-.9-2.4-.9-3.1 0-1.5 1.2-1.6 4.8-1.6v-2.7h-23.1v2.7c4.5 0 5.4.7 7 4.7l17.9 45.8h1.3L155 42.8l11.5 33.5zm309.3-8.2v1.5c0 2.8-1.6 3.2-5.4 3.2v2.7H492v-2.7c-2.9 0-4.1-.6-4.5-4.7l-3.7-37.3c-.1-.5-.1-1-.1-1.5 0-3.1 1.8-3.5 6.1-3.5v-2.7h-19.4l-11.1 32.7-10.7-32.7h-19.7v2.7c4.4 0 6.3.4 6.3 3.6 0 .3 0 .7-.1 1.4l-3.7 37.4c-.4 4.1-2.7 4.6-7.4 4.6v2.7h18.5v-2.7c-4.5 0-7.2-.4-7.2-4v-1l3.5-37.9 15.8 46.5h1.4l16-47.3 3.8 39zM565.7 79c0-5.5-4.1-8.5-11.5-10.1l-9.8-2.2c-1.6-.3-3-.9-3-2 0-.9.7-1.8 2.7-2.2.9.1 1.7.1 2.3.1 8.9 0 16.1-5.4 16.1-12.8 0-3.3-1.4-6-3.4-7.9l7.2.9v-6.3c-5.4 1.7-9.7 2.6-13.9 1.6-1.8-.5-3.9-.9-6-.9-8.9 0-16 5.4-16 12.7 0 6.2 4.1 10.6 10.4 12.3-3.8 1.4-6.4 4.1-6.4 7.7 0 2.8 1.7 5 3.8 5.8-6.1.4-11.6 3.1-11.6 7.4 0 6.5 9.3 9.8 19.9 9.8 9.7-.2 19.2-5.5 19.2-13.9zM252.6 67.1l-1.5-1.1c-2.3 3.1-5.1 4.4-8.7 4.4-7.5 0-13.5-7.1-13.5-17.1V53h23c-.1-8.1-5.1-16-15-16-9.5 0-18.6 8.8-18.6 20.3 0 11.3 8.6 19 19.1 19 6.3 0 11.8-3.1 15.2-9.2zm74.9 0L326 66c-2.3 3.1-5.1 4.4-8.7 4.4-7.5 0-13.5-7.1-13.5-17.1V53H327c-.1-8.1-5.3-16-15.2-16-9.5 0-18.6 8.8-18.6 20.3 0 11.3 8.6 19 19.1 19 6.3 0 11.8-3.1 15.2-9.2zm-110.8 0l-1.5-1.1c-2.3 3.1-5.1 4.4-8.7 4.4-7.5 0-13.5-7.1-13.5-17.1V53h23c-.1-8.1-5.1-16-15-16-9.5 0-18.6 8.8-18.6 20.3 0 11.3 8.6 19 19.1 19 6.3 0 11.8-3.1 15.2-9.2zM583.5 37c-6.4 0-11.5 2.1-14.3 3.7v9.6h2.5c.7-6 3.3-9.8 8.4-9.8 5.4 0 6.6 3.9 6.6 9v3.7l-7.9 3c-7.1 2.8-12.1 5.5-12.1 11.4 0 5.4 4.3 8.6 9.4 8.6 4.7 0 8.6-2.9 10.7-6.1 1.3 4.2 4.9 6.1 8.7 6.1 3.5 0 6-1.5 7.8-4l-1.4-1.5c-.6.3-.9.4-1.5.4-1.5 0-2.5-1.1-2.5-3.3v-17c0-8.4-4.9-13.8-14.4-13.8zm-72.6 0c-6.4 0-11.9 2.1-14.8 3.7v9.6h2.5c.7-6 3.5-9.8 8.8-9.8 5.4 0 6.6 3.9 6.6 9v3.7l-7.9 3C499 59 494 61.8 494 67.7c0 5.4 4.3 8.6 9.4 8.6 4.7 0 8.6-2.9 10.7-6.1 1.3 4.2 4.9 6.1 8.7 6.1 4.1 0 7.3-2.4 8.8-4.9l-1.3-1.4c-.9.9-1.6 1.3-2.6 1.3-1.5 0-2.5-1.1-2.5-3.3V50.8c.1-8.4-4.9-13.8-14.3-13.8zm225.9 30.1l-1.5-1.1c-2.3 3.1-5.1 4.4-8.7 4.4-7.5 0-13.5-7.1-13.5-17.1V53h23.1c-.1-8.1-5.3-16-15.2-16-9.5 0-18.6 8.8-18.6 20.3 0 11.3 8.6 19 19.1 19 6.4 0 11.9-3.1 15.3-9.2zm-389.3 5.8c-3.6 0-4.3-.6-4.3-4.8V47.3c1.3-2.7 3.5-4.1 6-4.1 3.9 0 6.4 2.7 6.4 8.7v16.2c0 4.2-.6 4.8-4.3 4.8v2.5h19v-2.5c-2.8 0-3.5-.6-3.5-4.8V49.6c0-6.9-3.9-12.6-11.8-12.6-5.4 0-9.9 3.9-11.7 7.6v-6.7h-15.5v2.5c3.7 0 4.4.6 4.4 4.8v22.9c0 4.2-.7 4.8-4.4 4.8v2.5h19.9v-2.5zm332.2 0c-3.6 0-4.3-.6-4.3-4.8V47.3c1.3-2.7 3.5-4.1 6-4.1 3.9 0 6.4 2.7 6.4 8.7v16.2c0 4.2-.6 4.8-4.3 4.8v2.5h19.9v-2.5c-3.7 0-4.4-.6-4.4-4.8V49.6c0-6.9-3.9-12.6-11.8-12.6-5.4 0-9.9 3.9-11.7 7.6v-6.7h-16.7v2.5c3.7 0 5.5.6 5.5 4.8v22.9c0 4.2-.7 4.8-3.5 4.8v2.5h19v-2.5zm-43.1-11.3h-2.2c-.3 9.1-2.3 10.7-11.2 10.7H617l19.4-33.8v-.7h-22.6c-3.7 0-6.6-.1-8.9-.3l-.9 13h2.2c.9-7.4 3.7-9.7 10.8-9.7h6.4L604 74.7v.8h32.6V61.6zm7-16.4v22.9c0 4.2-.7 4.8-4.4 4.8v2.5h19v-2.5c-2.8 0-3.5-.6-3.5-4.8V37.9h-15.5v2.5c3.8 0 4.4.6 4.4 4.8zm-91.3 4.5c0 6.3-2.5 10-6 10s-5.9-3.7-5.9-10 2.4-9.9 5.9-9.9c3.5 0 6 3.6 6 9.9zm168.5-9.6c4.1 0 6.3 3.7 6.6 9.8h-14.1c.5-6.6 3.3-9.8 7.5-9.8zm-484.2 0c4.1 0 6.3 3.7 6.6 9.8h-14.1c.5-6.6 3.3-9.8 7.5-9.8zm-35.9 0c4.1 0 6.3 3.7 6.6 9.8h-14.1c.5-6.6 3.3-9.8 7.5-9.8zm110.7 0c4.1 0 6.3 3.7 6.6 9.8h-14.1c.5-6.6 3.4-9.8 7.5-9.8zm79.9 30.8c-5.8 0-9.4-5.3-9.4-14.7 0-11.5 4.9-15.5 10-15.5 2 0 3.7.5 5.1 1.6v25.8c-1.4 1.8-3.4 2.8-5.7 2.8zM514 56.2V68c-1.4 1.6-3.4 2.3-5 2.3-3.1 0-5-2.3-5-5.4 0-3.7 2.2-5.6 5.5-7l4.5-1.7zm72.7 0V68c-1.4 1.6-3.4 2.3-5 2.3-3.1 0-5-2.3-5-5.4 0-3.7 2.2-5.6 5.5-7l4.5-1.7zm-34.2 23.1c4.1 1 5.5 2.4 5.5 4.7 0 3.8-4.9 5.8-11.5 5.8-7.3 0-12.3-2.4-12.3-7.2 0-3.5 3-5.6 6.4-6.3l11.9 3z"/></svg>