<svg id="Layer_1" xmlns="http://www.w3.org/2000/svg" viewBox="0 0 595.3 841.9"><style>.st0{fill:#722E7A;} .st1{fill:#B291BB;}</style><path class="st0" d="M67.1 462.7v-2.9c7.6 0 11-.1 11-6.1v-58.6c0-5.9-3.4-6.1-11-6.1v-2.9h29.5v2.9c-7.7 0-11 0-11 6.1v59c0 4 1.1 5.6 6.1 5.6H103c12.5 0 16.4-2.7 21-20.8h2.4l-2.7 23.9H67.1zM130 412.4v-2.7h15.7v44.1c0 6.2 2 6.3 8.3 6.3v2.6h-24v-2.6c6.3 0 8.3-.1 8.3-6.3v-35.1c0-6.2-2-6.3-8.3-6.3zm11.4-27.4c2.9 0 5.2 2.4 5.2 5.2 0 2.9-2.3 5.2-5.2 5.2-2.8 0-5.2-2.3-5.2-5.2.1-2.8 2.5-5.2 5.2-5.2zM182.6 460.1v2.6H157v-2.6c6.4 0 8.3-.1 8.3-6.3v-40.5h-6.2v-2l6.2-1.8v-1.4c0-15.9 7.6-28.7 22.1-28.7 4.8 0 8.5.9 12 2.5l-.1 11.7H197c-.3-6.7-3.4-11.2-11-11.2-8 0-13.4 6.4-13.4 21.8v5.7c4 0 11.5-.1 15.2-.5l-.8 3.8h-14.4v40.5c0 6.3 1.7 6.4 10 6.4z"/><path class="st0" d="M215.1 464c-14 0-25.8-11.5-25.8-27.5 0-16.3 11.7-28 23-28 14.3 0 20 11 20 21.3h-36c-.1 1.1-.1 2.4-.1 3.7 0 14.1 8.6 25.6 22.4 25.6 5.7 0 10.1-2 13.5-6.2l1.3 1.4c-4.7 6.4-11.6 9.7-18.3 9.7zm-18.3-37.1H224c-.5-8.7-3.8-15.3-11.7-15.3-7.6 0-13.6 5.6-15.5 15.3z"/><path class="st1" d="M282.1 455.7c-5.3 5.2-12.5 8.3-20.6 8.3-11.7 0-20.5-8.6-20.5-19.3 0-13.4 10.5-21.8 23.2-26-.3-2.1-.4-4.2-.4-5.9 0-15.5 8.2-27.8 20-27.8 8.6 0 12.2 5.6 12.2 12.4 0 12.1-13.8 19.2-24.6 22 2 10.7 6.6 21.3 13.1 28.9 3.4-5.4 5.3-12.6 4.7-20.8l3 .3c.4 8.6-1.9 16.4-5.8 22.6 5.4 5.6 12 9.1 19.3 9.1 14.9 0 23.6-11.7 23.6-25.6 0-10.6-4.7-18.9-14.3-18.9-5.3 0-8.6 3.3-8.6 8.1 0 3.3 1.8 5.3 4.4 5.3 1.4 0 2.4-.6 3.3-2.5l1.6.9c-.5 2.7-3 4.2-5.3 4.2-3.5 0-7.1-2.8-7.1-7.4 0-7.2 5.9-11.4 11.6-11.4 11.2 0 17.4 9.5 17.4 21.8 0 15.5-10.1 30.3-29.6 30.3-8-.3-15-3.6-20.6-8.6zm-2-2c-8.5-8.7-13.5-21.6-15.4-32.3-8 3-15.7 8.2-15.7 20.8 0 10.2 6.7 17 17.2 17 5.2 0 10-2 13.9-5.5zm-9-37c10.6-3.2 21.5-8.8 21.5-19.3 0-5.2-2.9-9.3-8.7-9.3-8.6 0-13.4 8.7-13.4 20.2 0 2.7.2 5.4.6 8.4z"/><path class="st0" d="M355 462.7h-25.6v-2.9c6.4 0 9.5-.8 11.9-6.9l26.3-67.7h2.3l27.7 68.6c2.3 5.7 3.4 6.1 11.4 6.1v2.9h-28.2v-2.9c6.9 0 9.8-.3 9.8-2.9 0-.8-.4-1.8-.9-3.2l-9.5-23.7h-26.4l-8.6 22.9c-.4 1-.5 1.9-.5 2.7 0 3.8 4.4 4.3 10.4 4.3v2.7zm-.2-35.7H379l-12.4-30.9-11.8 30.9zM437.9 462.7h-26.4v-2.6c6.3 0 8.3-.1 8.3-6.3v-35.1c0-6.2-2-6.3-8.3-6.3v-2.7H427v10.1c4.5-5.9 9-11.4 13.5-11.4 4.2 0 8.6 3.9 10.1 7.2l-5.8 5.6h-.2c-1.6-3.5-4.3-6.8-7.8-6.8-3.2 0-5.7 2.8-9.7 7.7v31.7c0 6.2 2.5 6.3 10.9 6.3v2.6zM467.3 397.1h.9V410c4 0 14.9-.1 18.6-.5l-.8 3.7h-17.8v35.2c0 6.2 2.7 11 9.1 11 3.9 0 6.9-1.6 9.6-5.4l1.8 1.4c-3.8 5.8-8.5 8.7-14.9 8.7-6.9 0-12.8-5.2-12.8-12.9l.4-38h-8.1v-1.4c6.2-4.9 10.1-9.2 14-14.7zM524.5 412.2l-.6 12.6h-2.4c-.3-10-5.2-13.4-11.9-13.4-6.3 0-10.1 3.9-10.1 9.3 0 4.9 3 7.1 8.1 9.6l8 4c5.8 2.9 11.2 6.3 11.2 14.4 0 8.2-7.7 15.2-17.6 15.2-6.8 0-13.3-2-16.9-5.1l-.4-13.8h2.8c.8 11.2 6.2 15.5 14.8 15.5 6.6 0 11.2-3.3 11.2-9.6 0-4.4-2.8-7.3-7.4-9.6l-9.2-4.5c-5.7-2.8-10.5-6.4-10.5-13.6 0-8.7 6.9-14.9 17.2-14.9 4.7.1 10.2 1.9 13.7 3.9z"/></svg>