<svg id="Layer_1" xmlns="http://www.w3.org/2000/svg" viewBox="0 0 477 107"><style>.st0{fill:#CB181A;} .st1{font-family:&apos;FinancierDisplay-Medium&apos;;} .st2{font-size:130px;} .st3{letter-spacing:-5;} .st4{letter-spacing:-4;} .st5{letter-spacing:-3;}</style><path d="M25 5.4v32.2h9.5c10.3 0 10.8-1.7 11.6-9.8h3v23.5h-3c-.8-8.1-1.3-9.6-11.6-9.6H25v28c0 5.7 1.6 7 12.1 7v3.5H0v-3.5c7.7 0 10.4-.4 10.4-6.6V11.7c0-6.2-2.7-6.6-10.4-6.6V1.5h49.3c6.6 0 9-.3 11.1-.7v24.3h-3.2C55.4 8.3 52 5.4 36.9 5.4H25M123.9 1.5c6.6 0 9-.3 11.1-.7v24.3h-3.3C130 8.3 126.6 5.4 111.5 5.4h-4.2v64.4c0 6.1 2.3 7 12.1 7v3.5H80.6v-3.5c9.8 0 12.2-.9 12.2-7V5.4h-4.2c-15.1 0-18.5 2.9-20.2 19.8h-3.3V.9c2.1.4 4.4.7 11.1.7h47.7"/><text transform="translate(140.106 80.413)"><tspan x="0" y="0" class="st0 st1 st2 st3">M</tspan><tspan x="100.2" y="0" class="st0 st1 st2 st4">o</tspan><tspan x="156.5" y="0" class="st0 st1 st2 st5">n</tspan><tspan x="219.2" y="0" class="st0 st1 st2 st5">e</tspan><tspan x="269" y="0" class="st0 st1 st2">y</tspan></text></svg>