<svg id="Layer_1" data-name="Layer 1" xmlns="http://www.w3.org/2000/svg" viewBox="0 0 645.5 79.1"><defs><style>.cls-1{fill:#00964b;}.cls-2{fill:#98c8a1;}</style></defs><title>brand-house&amp;amp;home</title><path class="cls-1" d="M29.6 77.9H0V75c7.6 0 11-.1 11-6.1V10.3c0-5.9-3.4-6.1-11-6.1V1.3h29.6v2.9c-7.6 0-11 .1-11 6.1v25.8h42.6V10.3c0-5.9-3.4-6.1-11-6.1V1.3h29.6v2.9c-7.6 0-11 .1-11 6.1V69c0 5.9 3.4 6.1 11 6.1V78H50.2v-2.9c7.6 0 11-.1 11-6.1V39.6H18.6v29.3c0 5.9 3.4 6.1 11 6.1M105.8 79.2C93.2 79.2 81 67.7 81 51.4s12.1-27.8 24.8-27.8 24.8 11.4 24.8 27.8-12.1 27.8-24.8 27.8m0-52.5c-9.7 0-16.7 8.3-16.7 24.7s7 24.7 16.7 24.7 16.7-8.5 16.7-24.7-7-24.7-16.7-24.7M172.3 68.4c-2.4 4.8-8.5 10.7-16.6 10.7-10.1 0-15.4-8-15.4-18.1V33.8c0-6.2-2-6.3-8.3-6.3v-2.7h15.7v34.6c0 8.8 3.8 14.9 12 14.9 5.7 0 10.1-3.5 12.6-8.2V33.8c0-6.2-2-6.3-8.3-6.3v-2.7h15.7v44.1c0 6.2 2 6.3 8.3 6.3v2.7h-15.7M226 27.3l-.6 12.6H223c-.3-10-5.2-13.4-11.9-13.4S201 30.4 201 35.9s3 7.1 8.1 9.6l8 4c5.8 2.9 11.3 6.3 11.3 14.4s-7.7 15.2-17.6 15.2c-6.8 0-13.3-2-16.9-5.1l-.4-13.8h2.8c.8 11.3 6.2 15.6 14.8 15.6 6.6 0 11.3-3.3 11.3-9.6 0-4.4-2.8-7.3-7.5-9.6l-9.2-4.5c-5.7-2.8-10.5-6.4-10.5-13.7 0-8.7 7-14.9 17.2-14.9a30.6 30.6 0 0 1 13.8 3.8M258.9 79.2c-14 0-25.8-11.5-25.8-27.6s11.8-28.1 23-28.1c14.3 0 20 11 20 21.4h-36a34.4 34.4 0 0 0-.1 3.7c0 14.2 8.6 25.7 22.4 25.7a16.4 16.4 0 0 0 13.5-6.2l1.3 1.4a22.4 22.4 0 0 1-18.2 9.7M240.7 42h27.1c-.5-8.7-3.8-15.3-11.8-15.3s-13.7 5.6-15.6 15.3"/><path class="cls-2" d="M326 70.8a29.3 29.3 0 0 1-20.6 8.3c-11.8 0-20.5-8.6-20.5-19.3 0-13.4 10.5-21.9 23.3-26a51.7 51.7 0 0 1-.4-5.9c0-15.6 8.2-27.8 20-27.8 8.6 0 12.3 5.6 12.3 12.4 0 12.1-13.8 19.2-24.7 22 2 10.7 6.6 21.4 13.1 28.9a34.1 34.1 0 0 0 4.7-20.9l3 .3a39.1 39.1 0 0 1-5.8 22.6c5.4 5.6 12 9.1 19.3 9.1 14.9 0 23.6-11.8 23.6-25.7 0-10.6-4.7-19-14.3-19-5.3 0-8.6 3.3-8.6 8.1 0 3.3 1.8 5.3 4.4 5.3s2.4-.6 3.3-2.5l1.6.9a5.4 5.4 0 0 1-5.3 4.2 7.2 7.2 0 0 1-7.1-7.5c0-7.2 5.9-11.4 11.6-11.4 11.3 0 17.4 9.5 17.4 21.9 0 15.5-10.1 30.3-29.6 30.3a30.7 30.7 0 0 1-21-8.3m-2-2c-8.5-8.7-13.5-21.6-15.4-32.4-8 3-15.7 8.2-15.7 20.9 0 10.2 6.7 17.1 17.2 17.1a20.6 20.6 0 0 0 13.9-5.6m-9-37c10.6-3.2 21.5-8.9 21.5-19.3 0-5.2-2.9-9.4-8.7-9.4-8.6 0-13.4 8.7-13.4 20.2a65.1 65.1 0 0 0 .6 8.5"/><path class="cls-1" d="M408.8 77.9h-29.6V75c7.6 0 11-.1 11-6.1V10.3c0-5.9-3.4-6.1-11-6.1V1.3h29.6v2.9c-7.6 0-11 .1-11 6.1v25.8h42.6V10.3c0-5.9-3.4-6.1-11-6.1V1.3H459v2.9c-7.6 0-11 .1-11 6.1V69c0 5.9 3.4 6.1 11 6.1V78h-29.6v-2.9c7.6 0 11-.1 11-6.1V39.6h-42.6v29.3c0 5.9 3.4 6.1 11 6.1M484 79.2c-12.6 0-24.8-11.5-24.8-27.8s12.1-27.8 24.8-27.8 24.8 11.4 24.8 27.8-12.1 27.8-24.8 27.8m0-52.5c-9.7 0-16.7 8.3-16.7 24.7s7 24.7 16.7 24.7 16.7-8.5 16.7-24.7-7-24.7-16.7-24.7M535.4 77.9h-24v-2.7c6.3 0 8.3-.1 8.3-6.3V33.8c0-6.2-2-6.3-8.3-6.3v-2.7h15.7v10.6c2.3-4.6 8.2-11.9 16.9-11.9s13.3 5.3 14.8 12.5c2.4-4.7 8.6-12.5 17.6-12.5 11.1 0 15.4 8.5 15.4 18.6v26.8c0 6.2 1.9 6.3 8.3 6.3v2.7h-23.8v-2.7c6.3 0 8.2-.1 8.2-6.3V44.2c0-9.6-3.8-15.2-12.1-15.2-6.2 0-10.9 4.8-13.1 9.1.1 1.3.3 2.7.3 4v26.8c0 6.2 1.9 6.3 8.3 6.3v2.7h-24v-2.7c6.3 0 8.2-.1 8.2-6.3V44.2c0-9.6-3.8-15.2-12.1-15.2-6.1 0-10.6 4.4-12.9 8.7v31.2c0 6.2 2 6.3 8.3 6.3M627.4 79.2c-14 0-25.8-11.5-25.8-27.6s11.8-28.1 23-28.1c14.3 0 20 11 20 21.4h-36a34.2 34.2 0 0 0-.1 3.7c0 14.2 8.6 25.7 22.4 25.7a16.4 16.4 0 0 0 13.5-6.2l1.3 1.4a22.4 22.4 0 0 1-18.2 9.7M609.2 42h27.3c-.5-8.7-3.8-15.3-11.8-15.3S611 32.3 609.2 42"/></svg>